<?xml version="1.0" encoding="UTF-8" standalone="no"?>
<svg width="490px" height="110px" viewBox="0 0 490 110" version="1.1" xmlns="http://www.w3.org/2000/svg" xmlns:xlink="http://www.w3.org/1999/xlink" xmlns:sketch="http://www.bohemiancoding.com/sketch/ns">
    <!-- Generator: Sketch 3.4.4 (17249) - http://www.bohemiancoding.com/sketch -->
    <title>slogan</title>
    <desc>Created with Sketch.</desc>
    <defs></defs>
    <g id="Page-1" stroke="none" stroke-width="1" fill="none" fill-rule="evenodd" sketch:type="MSPage">
        <g id="slogan" sketch:type="MSArtboardGroup" fill="#000000">
            <path d="M51.2749354,23.1671835 C51.2749354,27.3985569 50.4516017,31.2390439 48.8049096,34.6887597 C47.1582174,38.1384755 45.0008747,40.9992996 42.3328165,43.2713178 C39.5605374,45.6267129 36.4704305,47.4088656 33.0624031,48.6178295 C29.6543757,49.8267933 26.0848593,50.4312661 22.3537468,50.4312661 L3,50.4312661 L3.46899225,48.3677003 C4.01094156,48.3677003 4.77695457,48.3155905 5.76705426,48.2113695 C6.75715396,48.1071485 7.4606353,47.9716632 7.87751938,47.8049096 C8.62791073,47.5130907 9.19590677,47.1014238 9.58152455,46.5698966 C9.96714232,46.0383694 10.2329019,45.4078417 10.3788114,44.6782946 L17.7576227,12.7555556 C17.8201554,12.5054251 17.8774761,12.2292435 17.9295866,11.9270026 C17.9816971,11.6247616 18.0077519,11.3798459 18.0077519,11.1922481 C18.0077519,10.7336756 17.9295873,10.3324307 17.7732558,9.98850129 C17.6169243,9.64457192 17.2990549,9.35796842 16.8196382,9.12868217 C16.2776889,8.87855172 15.6106844,8.66490183 14.8186047,8.4877261 C14.0265249,8.31055036 13.422052,8.19069799 13.005168,8.12816537 L13.4741602,6.06459948 L32.2651163,6.06459948 C34.1410947,6.06459948 36.183796,6.3303591 38.3932817,6.8618863 C40.6027673,7.39341351 42.6663125,8.30533376 44.5839793,9.59767442 C46.6058671,10.9525477 48.2264797,12.7607553 49.4458656,15.0223514 C50.6652516,17.2839476 51.2749354,19.9988644 51.2749354,23.1671835 L51.2749354,23.1671835 Z M43.9273902,23.1984496 C43.9273902,18.5293479 42.6767567,14.9025108 40.1754522,12.3178295 C37.6741477,9.73314814 34.349547,8.44082687 30.2015504,8.44082687 C29.346938,8.44082687 28.4610726,8.45645979 27.5439276,8.4877261 C26.6267827,8.5189924 25.9076684,8.54504727 25.3865633,8.56589147 L17.4449612,42.9899225 C17.3824286,43.2817413 17.3303189,43.5631339 17.2886305,43.8341085 C17.2469421,44.1050832 17.2260982,44.3656318 17.2260982,44.6157623 C17.2260982,45.8664145 17.7471955,46.7470689 18.7894057,47.2577519 C19.8316159,47.7684349 21.540815,48.0237726 23.9170543,48.0237726 C27.0228407,48.0237726 29.8523989,47.3150803 32.405814,45.8976744 C34.959229,44.4802685 37.0800949,42.5938964 38.7684755,40.2385013 C40.4985444,37.7997294 41.7908657,35.1421332 42.645478,32.2656331 C43.5000904,29.3891329 43.9273902,26.3667686 43.9273902,23.1984496 L43.9273902,23.1984496 Z M80.821447,25.3870801 C80.821447,27.5965657 80.1283876,29.4933599 78.7422481,31.0775194 C77.3561085,32.6616789 75.339462,33.9227343 72.6922481,34.8607235 C70.7537371,35.5694265 68.7944113,36.1426335 66.8142119,36.5803618 C64.8340125,37.01809 62.6454039,37.3828581 60.2483204,37.674677 C60.2483204,40.9680613 60.8580042,43.4849612 62.0773902,45.2254522 C63.2967761,46.9659432 65.0841398,47.8361757 67.4395349,47.8361757 C69.5239553,47.8361757 71.3634287,47.3150784 72.9580103,46.2728682 C74.552592,45.230658 76.1210948,43.6777881 77.6635659,41.6142119 L79.4457364,42.9273902 C77.7782001,45.4703831 75.693811,47.5026625 73.1925065,49.0242894 C70.691202,50.5459163 68.0961375,51.3067183 65.4072351,51.3067183 C61.717811,51.3067183 58.8986747,50.2749457 56.9497416,48.2113695 C55.0008085,46.1477933 54.0263566,43.2192265 54.0263566,39.4255814 C54.0263566,36.7992117 54.4380234,34.2927337 55.2613695,31.9060724 C56.0847156,29.519411 57.2884503,27.3360133 58.8726098,25.355814 C60.4150809,23.417303 62.3066641,21.8540111 64.547416,20.6658915 C66.788168,19.4777718 69.2633801,18.8837209 71.9731266,18.8837209 C74.974692,18.8837209 77.1997774,19.4934048 78.6484496,20.7127907 C80.0971218,21.9321766 80.821447,23.4902575 80.821447,25.3870801 L80.821447,25.3870801 Z M75.0684755,24.6054264 C75.0684755,23.7925024 74.953834,23.1515527 74.7245478,22.6825581 C74.4952616,22.2135635 74.2034471,21.8644284 73.8490956,21.6351421 C73.4738999,21.3850117 73.077866,21.2286825 72.6609819,21.1661499 C72.2440978,21.1036173 71.8167981,21.0723514 71.3790698,21.0723514 C68.8777653,21.0723514 66.5693043,22.4480483 64.4536176,25.1994832 C62.3379309,27.9509181 60.9987108,31.3797383 60.4359173,35.4860465 C61.8950116,35.2776045 63.541679,34.980579 65.375969,34.5949612 C67.210259,34.2093435 68.731863,33.7038791 69.9408269,33.078553 C71.6708958,32.1822522 72.9580061,31.0306272 73.8021964,29.6236434 C74.6463866,28.2166596 75.0684755,26.5439373 75.0684755,24.6054264 L75.0684755,24.6054264 Z M93.3904393,51.3379845 C90.3054971,51.3379845 87.7364874,50.7908323 85.6833333,49.6965116 C83.6301792,48.6021909 82.6036176,47.1691734 82.6036176,45.397416 C82.6036176,44.5636479 82.905854,43.7820019 83.5103359,43.0524548 C84.1148178,42.3229076 84.854776,41.9581395 85.7302326,41.9581395 C86.5640007,41.9581395 87.2362162,42.1509455 87.7468992,42.5365633 C88.2575822,42.9221811 88.6588271,43.3755357 88.950646,43.8966408 C89.2633091,44.4385901 89.5394906,45.0847508 89.779199,45.8351421 C90.0189073,46.5855335 90.2221353,47.2004283 90.3888889,47.679845 C90.701552,48.0341964 91.1340627,48.3624877 91.6864341,48.6647287 C92.2388055,48.9669696 93.0360844,49.1180879 94.0782946,49.1180879 C96.3294686,49.1180879 98.0334567,48.5553028 99.1903101,47.4297158 C100.347163,46.3041287 100.925581,44.7825247 100.925581,42.8648579 C100.925581,41.447452 100.38364,40.3166709 99.2997416,39.4724806 C98.215843,38.6282904 96.6004414,37.8518554 94.4534884,37.1431525 C93.6822528,36.893022 92.7755435,36.512621 91.7333333,36.001938 C90.6911231,35.491255 89.8573675,34.9441028 89.2320413,34.3604651 C88.48165,33.6934506 87.8771771,32.9013827 87.4186047,31.9842377 C86.9600322,31.0670927 86.7307494,29.9832104 86.7307494,28.7325581 C86.7307494,26.0645 87.9240621,23.756039 90.3107235,21.8071059 C92.6973849,19.8581729 95.6311626,18.8837209 99.1121447,18.8837209 C99.9250687,18.8837209 100.800512,18.9254087 101.738501,19.0087855 C102.67649,19.0921623 103.708263,19.3214452 104.83385,19.6966408 C105.813528,20.0301481 106.647283,20.5251905 107.335142,21.1817829 C108.023001,21.8383754 108.366925,22.687764 108.366925,23.7299742 C108.366925,24.5845865 108.080322,25.3610215 107.507106,26.0593023 C106.93389,26.7575832 106.178299,27.1067183 105.24031,27.1067183 C104.469075,27.1067183 103.833336,26.9399672 103.333075,26.6064599 C102.832814,26.2729527 102.415936,25.824809 102.082429,25.2620155 C101.748922,24.699222 101.477951,24.0947491 101.269509,23.4485788 C101.061067,22.8024085 100.831784,22.1666698 100.581654,21.5413437 C100.185614,21.37459 99.8312677,21.2599486 99.5186047,21.197416 C99.2059416,21.1348834 98.7890638,21.1036176 98.2679587,21.1036176 C96.2252267,21.1036176 94.6775677,21.6507697 93.6249354,22.7450904 C92.5723031,23.8394112 92.0459948,25.1369434 92.0459948,26.6377261 C92.0459948,28.0968204 92.5201934,29.1963357 93.4686047,29.9363049 C94.4170159,30.6762742 95.9855188,31.4422872 98.1741602,32.2343669 C101.008972,33.2557329 103.067306,34.4229909 104.349225,35.7361757 C105.631143,37.0493606 106.272093,38.6751841 106.272093,40.6136951 C106.272093,43.7820141 105.052725,46.3614457 102.613953,48.3520672 C100.175182,50.3426887 97.1007076,51.3379845 93.3904393,51.3379845 L93.3904393,51.3379845 Z M126.907752,47.0232558 L126.43876,49.0242894 C124.521093,49.795525 122.989067,50.3322552 121.842636,50.6344961 C120.696204,50.9367371 119.716542,51.0878553 118.903618,51.0878553 C117.236081,51.0878553 115.985448,50.6553445 115.15168,49.7903101 C114.317911,48.9252756 113.901034,47.8570262 113.901034,46.5855297 C113.901034,46.106113 113.942721,45.6058596 114.026098,45.0847545 C114.109475,44.5636494 114.24496,43.9070668 114.432558,43.1149871 L117.74677,29.8268734 C117.913524,29.0973262 118.075064,28.3156803 118.231395,27.4819121 C118.387727,26.648144 118.465891,25.9394517 118.465891,25.355814 C118.465891,24.1885385 118.273085,23.4121036 117.887468,23.0264858 C117.50185,22.640868 116.714993,22.448062 115.526873,22.448062 C115.068301,22.448062 114.458617,22.5210156 113.697804,22.6669251 C112.93699,22.8128345 112.358572,22.9378978 111.962532,23.0421189 L112.431525,21.0410853 C114.057372,20.3115381 115.516445,19.7695969 116.808786,19.4152455 C118.101126,19.060894 119.122477,18.8837209 119.872868,18.8837209 C121.582093,18.8837209 122.822304,19.2901768 123.59354,20.1031008 C124.364776,20.9160247 124.750388,22.010329 124.750388,23.3860465 C124.750388,23.7612422 124.7087,24.2719175 124.625323,24.9180879 C124.541946,25.5642582 124.416883,26.2104188 124.250129,26.8565891 L120.904651,40.1447028 C120.696209,40.9576268 120.513825,41.7549057 120.357494,42.5365633 C120.201162,43.318221 120.122997,43.9591706 120.122997,44.4594315 C120.122997,45.6475512 120.388757,46.4604629 120.920284,46.8981912 C121.451811,47.3359195 122.311622,47.5547804 123.499742,47.5547804 C123.895781,47.5547804 124.463778,47.5026706 125.203747,47.3984496 C125.943716,47.2942286 126.511712,47.1691652 126.907752,47.0232558 L126.907752,47.0232558 Z M129.127649,7.06511628 C129.127649,8.25323591 128.742037,9.29021952 127.970801,10.1760982 C127.199565,11.0619769 126.240746,11.5049096 125.094315,11.5049096 C124.031261,11.5049096 123.11413,11.0828208 122.342894,10.2386305 C121.571659,9.39444022 121.186047,8.43041024 121.186047,7.34651163 C121.186047,6.2000804 121.571659,5.19957361 122.342894,4.34496124 C123.11413,3.49034887 124.031261,3.0630491 125.094315,3.0630491 C126.282435,3.0630491 127.251676,3.46429401 128.002067,4.26679587 C128.752459,5.06929772 129.127649,6.00206187 129.127649,7.06511628 L129.127649,7.06511628 Z M150.888889,46.2103359 L150.670026,46.1478036 C150.253142,46.4813109 149.664302,46.9502984 148.903488,47.5547804 C148.142675,48.1592623 147.345396,48.6907815 146.511628,49.149354 C145.552795,49.7121475 144.583554,50.1707131 143.603876,50.5250646 C142.624198,50.8794161 141.540316,51.0565891 140.352196,51.0565891 C137.329787,51.0565891 135.000482,49.9883397 133.364212,47.8518088 C131.727942,45.7152779 130.909819,42.7710782 130.909819,39.0191214 C130.909819,36.4344401 131.384018,33.9227512 132.332429,31.4839793 C133.28084,29.0452074 134.578372,26.8774427 136.225065,24.9806202 C137.809224,23.1463302 139.706018,21.6716249 141.915504,20.5564599 C144.12499,19.441295 146.438661,18.8837209 148.856589,18.8837209 C150.357372,18.8837209 151.774756,19.0765269 153.108786,19.4621447 C154.442815,19.8477625 155.516275,20.3011171 156.329199,20.8222222 L162.050904,19.3527132 L162.426098,19.8217054 L157.173385,44.4594315 C156.381305,48.1905441 155.365166,51.3431826 154.124935,53.9174419 C152.884705,56.4917011 151.451688,58.5291915 149.82584,60.0299742 C148.158303,61.5724453 146.31883,62.6719605 144.307364,63.328553 C142.295899,63.9851454 140.018703,64.3134367 137.475711,64.3134367 C135.745642,64.3134367 134.333468,64.1779514 133.239147,63.9069767 C132.144827,63.6360021 131.285016,63.2816559 130.65969,62.8439276 C130.034364,62.4061994 129.612275,61.9111569 129.393411,61.3587855 C129.174547,60.8064141 129.065116,60.2801059 129.065116,59.779845 C129.065116,58.8418558 129.346509,58.0549989 129.909302,57.4192506 C130.472096,56.7835024 131.24332,56.4656331 132.222997,56.4656331 C132.994233,56.4656331 133.650816,56.6897049 134.192765,57.1378553 C134.734714,57.5860057 135.172436,58.0706262 135.505943,58.5917313 C135.860295,59.1336806 136.204219,59.7798412 136.537726,60.5302326 C136.871233,61.2806239 137.12136,61.843409 137.288114,62.2186047 L138.226098,62.2186047 C139.372529,62.2186047 140.602319,61.958056 141.915504,61.4369509 C143.228689,60.9158458 144.427212,60.0716682 145.511111,58.9043928 C146.615854,57.6954289 147.647627,56.0748164 148.60646,54.0425065 C149.565293,52.0101966 150.326095,49.3994991 150.888889,46.2103359 L150.888889,46.2103359 Z M155.078553,26.2312661 C155.078553,25.6476284 154.989966,25.0483666 154.812791,24.4334625 C154.635615,23.8185585 154.307324,23.2505625 153.827907,22.7294574 C153.369334,22.2291965 152.785706,21.8331625 152.077003,21.5413437 C151.3683,21.2495248 150.46159,21.1036176 149.356848,21.1036176 C147.751844,21.1036176 146.235451,21.588238 144.807623,22.5574935 C143.379795,23.526749 142.092684,24.8555471 140.946253,26.5439276 C139.883199,28.1280872 139.018177,30.0457252 138.351163,32.2968992 C137.684148,34.5480733 137.350646,36.8096355 137.350646,39.0816537 C137.350646,40.3114618 137.439233,41.4422429 137.616408,42.474031 C137.793584,43.5058191 138.101031,44.4073174 138.53876,45.178553 C138.976488,45.9497885 139.554906,46.5490504 140.274031,46.9763566 C140.993156,47.4036628 141.92592,47.6173127 143.072351,47.6173127 C144.531446,47.6173127 145.980096,47.1952239 147.418346,46.3510336 C148.856596,45.5068433 150.221871,44.4281719 151.514212,43.1149871 L155.078553,26.2312661 Z M201.321189,46.8043928 L200.852196,48.8054264 C198.976218,49.5558177 197.517146,50.1029699 196.474935,50.4468992 C195.432725,50.7908286 194.380109,50.9627907 193.317054,50.9627907 C191.649518,50.9627907 190.398884,50.5302799 189.565116,49.6652455 C188.731348,48.800211 188.31447,47.7319616 188.31447,46.4604651 C188.31447,46.0018926 188.356158,45.4964283 188.439535,44.9440568 C188.522912,44.3916854 188.658397,43.7403138 188.845995,42.9899225 L191.910078,31.3276486 C192.139364,30.4313478 192.321748,29.618436 192.457235,28.8888889 C192.592722,28.1593417 192.660465,27.5757128 192.660465,27.1379845 C192.660465,25.7414228 192.326963,24.6366966 191.659948,23.8237726 C190.992934,23.0108486 190.002849,22.6043928 188.689664,22.6043928 C187.418168,22.6043928 185.990361,23.0212706 184.406202,23.8550388 C182.822042,24.6888069 181.331704,25.8977526 179.935142,27.4819121 L174.651163,50.4312661 L168.835659,50.4312661 L173.494315,30.170801 C173.598536,29.6705401 173.749654,28.9462149 173.947674,27.9978036 C174.145694,27.0493923 174.244703,26.2833793 174.244703,25.6997416 C174.244703,24.5324662 174.046686,23.7508202 173.650646,23.3547804 C173.254606,22.9587405 172.462538,22.7607235 171.274419,22.7607235 C170.815846,22.7607235 170.232217,22.8388881 169.523514,22.9952196 C168.814811,23.1515512 168.262448,23.2818255 167.866408,23.3860465 L168.335401,21.3850129 C169.961248,20.6554658 171.399477,20.1135246 172.650129,19.7591731 C173.900781,19.4048217 174.974242,19.2276486 175.870543,19.2276486 C177.517235,19.2276486 178.694915,19.6757922 179.403618,20.572093 C180.112321,21.4683938 180.487511,22.7086053 180.529199,24.2927649 L180.716796,24.2927649 C183.009658,22.4584749 184.989828,21.098411 186.657364,20.2125323 C188.324901,19.3266536 190.221695,18.8837209 192.347804,18.8837209 C194.348847,18.8837209 195.912139,19.4621389 197.037726,20.6189922 C198.163313,21.7758456 198.726098,23.2922387 198.726098,25.1682171 C198.726098,25.5434127 198.668777,26.2104173 198.554134,27.1692506 C198.439491,28.128084 198.257107,29.0764811 198.006977,30.0144703 L195.38062,40.0509044 C195.193022,40.7179189 195.010638,41.4839319 194.833463,42.3489664 C194.656287,43.2140009 194.5677,43.8862164 194.5677,44.3656331 C194.5677,45.5537527 194.828249,46.3614535 195.349354,46.7887597 C195.870459,47.2160659 196.725059,47.4297158 197.913178,47.4297158 C198.309218,47.4297158 198.877214,47.3619731 199.617183,47.2264858 C200.357153,47.0909985 200.925149,46.9503022 201.321189,46.8043928 L201.321189,46.8043928 Z M235.839018,47.0232558 L235.370026,49.0242894 C233.452359,49.795525 231.920333,50.3322552 230.773902,50.6344961 C229.627471,50.9367371 228.647808,51.0878553 227.834884,51.0878553 C226.167347,51.0878553 224.916714,50.6553445 224.082946,49.7903101 C223.249178,48.9252756 222.8323,47.8570262 222.8323,46.5855297 C222.8323,46.106113 222.873988,45.6058596 222.957364,45.0847545 C223.040741,44.5636494 223.176226,43.9070668 223.363824,43.1149871 L226.678036,29.8268734 C226.84479,29.0973262 227.00633,28.3156803 227.162661,27.4819121 C227.318993,26.648144 227.397158,25.9394517 227.397158,25.355814 C227.397158,24.1885385 227.204352,23.4121036 226.818734,23.0264858 C226.433116,22.640868 225.646259,22.448062 224.45814,22.448062 C223.999567,22.448062 223.389883,22.5210156 222.62907,22.6669251 C221.868256,22.8128345 221.289838,22.9378978 220.893798,23.0421189 L221.362791,21.0410853 C222.988639,20.3115381 224.447711,19.7695969 225.740052,19.4152455 C227.032392,19.060894 228.053743,18.8837209 228.804134,18.8837209 C230.513359,18.8837209 231.753571,19.2901768 232.524806,20.1031008 C233.296042,20.9160247 233.681654,22.010329 233.681654,23.3860465 C233.681654,23.7612422 233.639966,24.2719175 233.556589,24.9180879 C233.473212,25.5642582 233.348149,26.2104188 233.181395,26.8565891 L229.835917,40.1447028 C229.627475,40.9576268 229.445091,41.7549057 229.28876,42.5365633 C229.132428,43.318221 229.054264,43.9591706 229.054264,44.4594315 C229.054264,45.6475512 229.320023,46.4604629 229.85155,46.8981912 C230.383078,47.3359195 231.242888,47.5547804 232.431008,47.5547804 C232.827048,47.5547804 233.395044,47.5026706 234.135013,47.3984496 C234.874982,47.2942286 235.442978,47.1691652 235.839018,47.0232558 L235.839018,47.0232558 Z M238.058915,7.06511628 C238.058915,8.25323591 237.673303,9.29021952 236.902067,10.1760982 C236.130832,11.0619769 235.172013,11.5049096 234.025581,11.5049096 C232.962527,11.5049096 232.045396,11.0828208 231.27416,10.2386305 C230.502925,9.39444022 230.117313,8.43041024 230.117313,7.34651163 C230.117313,6.2000804 230.502925,5.19957361 231.27416,4.34496124 C232.045396,3.49034887 232.962527,3.0630491 234.025581,3.0630491 C235.213701,3.0630491 236.182942,3.46429401 236.933333,4.26679587 C237.683725,5.06929772 238.058915,6.00206187 238.058915,7.06511628 L238.058915,7.06511628 Z M273.577261,46.8043928 L273.108269,48.8054264 C271.23229,49.5558177 269.773218,50.1029699 268.731008,50.4468992 C267.688798,50.7908286 266.636181,50.9627907 265.573127,50.9627907 C263.90559,50.9627907 262.654957,50.5302799 261.821189,49.6652455 C260.98742,48.800211 260.570543,47.7319616 260.570543,46.4604651 C260.570543,46.0018926 260.61223,45.4964283 260.695607,44.9440568 C260.778984,44.3916854 260.914469,43.7403138 261.102067,42.9899225 L264.16615,31.3276486 C264.395436,30.4313478 264.57782,29.618436 264.713307,28.8888889 C264.848795,28.1593417 264.916537,27.5757128 264.916537,27.1379845 C264.916537,25.7414228 264.583035,24.6366966 263.916021,23.8237726 C263.249006,23.0108486 262.258921,22.6043928 260.945736,22.6043928 C259.67424,22.6043928 258.246433,23.0212706 256.662274,23.8550388 C255.078114,24.6888069 253.587776,25.8977526 252.191214,27.4819121 L246.907235,50.4312661 L241.091731,50.4312661 L245.750388,30.170801 C245.854609,29.6705401 246.005727,28.9462149 246.203747,27.9978036 C246.401767,27.0493923 246.500775,26.2833793 246.500775,25.6997416 C246.500775,24.5324662 246.302758,23.7508202 245.906718,23.3547804 C245.510678,22.9587405 244.718611,22.7607235 243.530491,22.7607235 C243.071918,22.7607235 242.48829,22.8388881 241.779587,22.9952196 C241.070884,23.1515512 240.51852,23.2818255 240.122481,23.3860465 L240.591473,21.3850129 C242.217321,20.6554658 243.655549,20.1135246 244.906202,19.7591731 C246.156854,19.4048217 247.230314,19.2276486 248.126615,19.2276486 C249.773307,19.2276486 250.950987,19.6757922 251.65969,20.572093 C252.368393,21.4683938 252.743583,22.7086053 252.785271,24.2927649 L252.972868,24.2927649 C255.265731,22.4584749 257.2459,21.098411 258.913437,20.2125323 C260.580973,19.3266536 262.477767,18.8837209 264.603876,18.8837209 C266.60492,18.8837209 268.168211,19.4621389 269.293798,20.6189922 C270.419385,21.7758456 270.982171,23.2922387 270.982171,25.1682171 C270.982171,25.5434127 270.92485,26.2104173 270.810207,27.1692506 C270.695564,28.128084 270.51318,29.0764811 270.263049,30.0144703 L267.636693,40.0509044 C267.449095,40.7179189 267.266711,41.4839319 267.089535,42.3489664 C266.912359,43.2140009 266.823773,43.8862164 266.823773,44.3656331 C266.823773,45.5537527 267.084321,46.3614535 267.605426,46.7887597 C268.126531,47.2160659 268.981131,47.4297158 270.169251,47.4297158 C270.565291,47.4297158 271.133287,47.3619731 271.873256,47.2264858 C272.613225,47.0909985 273.181221,46.9503022 273.577261,46.8043928 L273.577261,46.8043928 Z M345.364341,46.8981912 L344.895349,48.8992248 C342.977682,49.6704604 341.445656,50.2071906 340.299225,50.5094315 C339.152794,50.8116725 338.173131,50.9627907 337.360207,50.9627907 C335.69267,50.9627907 334.442037,50.5302799 333.608269,49.6652455 C332.774501,48.800211 332.357623,47.7319616 332.357623,46.4604651 C332.357623,46.0018926 332.399311,45.4964283 332.482687,44.9440568 C332.566064,44.3916854 332.701549,43.7403138 332.889147,42.9899225 L335.95323,31.3276486 C336.182516,30.4313478 336.3649,29.618436 336.500388,28.8888889 C336.635875,28.1593417 336.703618,27.5757128 336.703618,27.1379845 C336.703618,25.7414228 336.401381,24.6366966 335.796899,23.8237726 C335.192417,23.0108486 334.233598,22.6043928 332.920413,22.6043928 C331.523852,22.6043928 330.153366,22.9326841 328.808915,23.5892765 C327.464464,24.2458689 325.94807,25.4704475 324.25969,27.2630491 L318.81938,50.4312661 L313.003876,50.4312661 L317.912661,29.545478 C318.016883,29.0869055 318.115891,28.6022851 318.20969,28.0916021 C318.303489,27.5809191 318.350388,27.200518 318.350388,26.9503876 C318.350388,25.5955143 318.011674,24.5324759 317.334238,23.7612403 C316.656801,22.9900048 315.661505,22.6043928 314.34832,22.6043928 C313.160201,22.6043928 311.847036,22.9014182 310.408786,23.495478 C308.970535,24.0895379 307.303024,25.4183359 305.406202,27.4819121 L300.122222,50.4312661 L294.306718,50.4312661 L298.965375,30.170801 C299.132128,29.4412539 299.293668,28.659608 299.45,27.8258398 C299.606332,26.9920716 299.684496,26.2833793 299.684496,25.6997416 C299.684496,24.4907778 299.486479,23.6934989 299.090439,23.3078811 C298.694399,22.9222634 297.923175,22.7294574 296.776744,22.7294574 C296.318172,22.7294574 295.729332,22.8128329 295.010207,22.9795866 C294.291082,23.1463402 293.733508,23.2818255 293.337468,23.3860465 L293.80646,21.3850129 C295.432308,20.6554658 296.870536,20.1135246 298.121189,19.7591731 C299.371841,19.4048217 300.445301,19.2276486 301.341602,19.2276486 C303.009138,19.2276486 304.192029,19.6810032 304.89031,20.5877261 C305.588591,21.494449 305.95857,22.7294495 306.000258,24.2927649 L306.187855,24.2927649 C308.647471,22.3542539 310.669329,20.9681351 312.253488,20.1343669 C313.837648,19.3005988 315.72402,18.8837209 317.912661,18.8837209 C319.767796,18.8837209 321.273767,19.4204511 322.43062,20.4939276 C323.587473,21.5674042 324.238845,22.9170461 324.384755,24.5428941 L324.509819,24.5428941 C326.740149,22.6877599 328.72553,21.2807972 330.466021,20.3219638 C332.206512,19.3631304 334.23358,18.8837209 336.547287,18.8837209 C338.54833,18.8837209 340.085567,19.4621389 341.159044,20.6189922 C342.23252,21.7758456 342.769251,23.2922387 342.769251,25.1682171 C342.769251,25.5434127 342.71193,26.2104173 342.597287,27.1692506 C342.482644,28.128084 342.30026,29.0764811 342.050129,30.0144703 L339.423773,40.0509044 C339.236175,40.7179189 339.059002,41.4839319 338.892248,42.3489664 C338.725494,43.2140009 338.642119,43.8862164 338.642119,44.3656331 C338.642119,45.5537527 338.892246,46.3614535 339.392506,46.7887597 C339.892767,47.2160659 340.736945,47.4297158 341.925065,47.4297158 C342.321104,47.4297158 342.894311,47.377606 343.644703,47.273385 C344.395094,47.169164 344.968301,47.0441006 345.364341,46.8981912 L345.364341,46.8981912 Z M369.595607,45.8976744 L369.40801,45.8976744 C367.490344,47.5026781 365.666503,48.7637336 363.936434,49.6808786 C362.206365,50.5980235 360.236617,51.0565891 358.027132,51.0565891 C356.026088,51.0565891 354.441952,50.4781712 353.274677,49.3213178 C352.107402,48.1644645 351.523773,46.6480714 351.523773,44.772093 C351.523773,44.2718321 351.56546,43.6777812 351.648837,42.9899225 C351.732214,42.3020637 351.930231,41.2807131 352.242894,39.9258398 L354.681654,30.170801 C354.91094,29.2328118 355.088113,28.4146891 355.213178,27.7164083 C355.338244,27.0181274 355.400775,26.3459119 355.400775,25.6997416 C355.400775,24.5324662 355.207969,23.7560312 354.822351,23.3704134 C354.436734,22.9847957 353.649877,22.7919897 352.461757,22.7919897 C352.003185,22.7919897 351.419556,22.8753652 350.710853,23.0421189 C350.00215,23.2088725 349.449787,23.3443578 349.053747,23.4485788 L349.522739,21.4475452 C351.148587,20.7179981 352.581604,20.165635 353.821835,19.7904393 C355.062065,19.4152436 356.057361,19.2276486 356.807752,19.2276486 C358.475288,19.2276486 359.710289,19.6028386 360.512791,20.35323 C361.315293,21.1036213 361.716537,22.2291915 361.716537,23.7299742 C361.716537,24.1051698 361.67485,24.6158452 361.591473,25.2620155 C361.508096,25.9081858 361.383033,26.5543465 361.216279,27.2005168 L358.371059,38.6126615 C358.162617,39.4881181 357.985444,40.3062408 357.839535,41.0670543 C357.693625,41.8278677 357.620672,42.4062857 357.620672,42.8023256 C357.620672,44.1988873 357.959385,45.3036135 358.636822,46.1165375 C359.314258,46.9294614 360.309554,47.3359173 361.622739,47.3359173 C363.144366,47.3359173 364.629493,46.9607273 366.078165,46.2103359 C367.526838,45.4599446 368.886901,44.4281719 370.158398,43.1149871 L375.348579,19.727907 L380.757623,19.3527132 L381.132817,19.8217054 L375.755039,44.3031008 C374.962959,47.8883039 373.95203,50.9523559 372.722222,53.4953488 C371.492414,56.0383417 370.054186,58.0914651 368.407494,59.6547804 C366.677425,61.3014725 364.811896,62.4895743 362.810853,63.2191214 C360.809809,63.9486686 358.527403,64.3134367 355.963566,64.3134367 C354.191809,64.3134367 352.784846,64.1883733 351.742636,63.9382429 C350.700425,63.6881124 349.877092,63.3441882 349.27261,62.9064599 C348.668128,62.4895759 348.261672,62.0205883 348.05323,61.4994832 C347.844788,60.9783781 347.740568,60.4572808 347.740568,59.9361757 C347.740568,59.0398749 348.011539,58.2478071 348.553488,57.5599483 C349.095438,56.8720896 349.877084,56.5281654 350.89845,56.5281654 C351.669685,56.5281654 352.326268,56.7470262 352.868217,57.1847545 C353.410166,57.6224828 353.847888,58.1018923 354.181395,58.6229974 C354.556591,59.1857909 354.900515,59.8215296 355.213178,60.5302326 C355.525841,61.2389355 355.775968,61.8017206 355.963566,62.2186047 L356.713953,62.2186047 C357.902073,62.2186047 359.157918,61.9267902 360.481525,61.3431525 C361.805132,60.7595147 363.019288,59.8528055 364.124031,58.6229974 C365.312151,57.2889684 366.3804,55.5693473 367.328811,53.4640827 C368.277223,51.3588181 369.032814,48.8367072 369.595607,45.8976744 L369.595607,45.8976744 Z M417.213953,2.5002584 L408.490698,40.1447028 C408.3031,40.9367826 408.125927,41.7288505 407.959173,42.5209302 C407.792419,43.31301 407.709044,43.9591706 407.709044,44.4594315 C407.709044,45.6475512 407.974804,46.4604629 408.506331,46.8981912 C409.037858,47.3359195 409.897668,47.5547804 411.085788,47.5547804 C411.502672,47.5547804 412.122778,47.5026706 412.946124,47.3984496 C413.76947,47.2942286 414.389576,47.1691652 414.80646,47.0232558 L414.337468,49.0242894 C412.461489,49.7746808 411.01805,50.3062 410.007106,50.618863 C408.996162,50.9315261 407.854959,51.0878553 406.583463,51.0878553 C404.915926,51.0878553 403.64966,50.6553445 402.784625,49.7903101 C401.919591,48.9252756 401.48708,47.8570262 401.48708,46.5855297 C401.48708,46.106113 401.533979,45.6058596 401.627778,45.0847545 C401.721577,44.5636494 401.851851,43.9070668 402.018605,43.1149871 L409.616279,10.1917313 C409.762188,9.54556094 409.861197,9.09741727 409.913307,8.84728682 C409.965418,8.59715637 409.991473,8.284498 409.991473,7.90930233 C409.991473,7.15891098 409.86641,6.58049299 409.616279,6.17403101 C409.366149,5.76756903 409.011802,5.46012163 408.55323,5.25167959 C408.115502,5.06408175 407.563139,4.9390184 406.896124,4.87648579 C406.229109,4.81395318 405.551683,4.74099956 404.863824,4.65762274 L405.30155,2.7503876 L416.901292,2.03126615 L417.213953,2.5002584 Z M433.941344,47.0232558 L433.472351,49.0242894 C431.554685,49.795525 430.022659,50.3322552 428.876227,50.6344961 C427.729796,50.9367371 426.750133,51.0878553 425.937209,51.0878553 C424.269673,51.0878553 423.019039,50.6553445 422.185271,49.7903101 C421.351503,48.9252756 420.934625,47.8570262 420.934625,46.5855297 C420.934625,46.106113 420.976313,45.6058596 421.05969,45.0847545 C421.143067,44.5636494 421.278552,43.9070668 421.46615,43.1149871 L424.780362,29.8268734 C424.947115,29.0973262 425.108656,28.3156803 425.264987,27.4819121 C425.421319,26.648144 425.499483,25.9394517 425.499483,25.355814 C425.499483,24.1885385 425.306677,23.4121036 424.921059,23.0264858 C424.535442,22.640868 423.748585,22.448062 422.560465,22.448062 C422.101893,22.448062 421.492209,22.5210156 420.731395,22.6669251 C419.970582,22.8128345 419.392164,22.9378978 418.996124,23.0421189 L419.465116,21.0410853 C421.090964,20.3115381 422.550037,19.7695969 423.842377,19.4152455 C425.134718,19.060894 426.156069,18.8837209 426.90646,18.8837209 C428.615685,18.8837209 429.855896,19.2901768 430.627132,20.1031008 C431.398367,20.9160247 431.783979,22.010329 431.783979,23.3860465 C431.783979,23.7612422 431.742292,24.2719175 431.658915,24.9180879 C431.575538,25.5642582 431.450475,26.2104188 431.283721,26.8565891 L427.938243,40.1447028 C427.729801,40.9576268 427.547417,41.7549057 427.391085,42.5365633 C427.234754,43.318221 427.156589,43.9591706 427.156589,44.4594315 C427.156589,45.6475512 427.422349,46.4604629 427.953876,46.8981912 C428.485403,47.3359195 429.345214,47.5547804 430.533333,47.5547804 C430.929373,47.5547804 431.497369,47.5026706 432.237339,47.3984496 C432.977308,47.2942286 433.545304,47.1691652 433.941344,47.0232558 L433.941344,47.0232558 Z M436.16124,7.06511628 C436.16124,8.25323591 435.775628,9.29021952 435.004393,10.1760982 C434.233157,11.0619769 433.274338,11.5049096 432.127907,11.5049096 C431.064853,11.5049096 430.147721,11.0828208 429.376486,10.2386305 C428.60525,9.39444022 428.219638,8.43041024 428.219638,7.34651163 C428.219638,6.2000804 428.60525,5.19957361 429.376486,4.34496124 C430.147721,3.49034887 431.064853,3.0630491 432.127907,3.0630491 C433.316027,3.0630491 434.285268,3.46429401 435.035659,4.26679587 C435.78605,5.06929772 436.16124,6.00206187 436.16124,7.06511628 L436.16124,7.06511628 Z M451.231525,22.7294574 L445.728682,48.5552972 C444.749005,53.1827105 442.685459,56.9658768 439.537984,59.9049096 C436.39051,62.8439423 433.149285,64.3134367 429.814212,64.3134367 C427.979922,64.3134367 426.63028,63.9643015 425.765245,63.2660207 C424.900211,62.5677398 424.4677,61.6870854 424.4677,60.624031 C424.4677,59.7277302 424.738671,58.9356624 425.28062,58.2478036 C425.822569,57.5599449 426.604215,57.2160207 427.625581,57.2160207 C428.271752,57.2160207 428.839748,57.3619279 429.329587,57.6537468 C429.819425,57.9455656 430.251936,58.3103337 430.627132,58.748062 C430.918951,59.1024135 431.247242,59.581823 431.612016,60.1863049 C431.976789,60.7907868 432.294658,61.3118841 432.565633,61.7496124 C434.170637,61.6245472 435.541123,60.5406648 436.677132,58.4979328 C437.813141,56.4552008 438.798015,53.537056 439.631783,49.7434109 L445.384755,22.7294574 L439.287855,22.7294574 L439.944444,19.8842377 L445.978811,19.8842377 L446.416537,17.7581395 C446.916798,15.3402119 447.708866,13.1620252 448.792765,11.2235142 C449.876663,9.28500323 451.106453,7.6383358 452.482171,6.28346253 C453.837044,4.94943347 455.374281,3.90202792 457.093928,3.14121447 C458.813574,2.38040102 460.465453,2 462.049612,2 C463.883902,2 465.233544,2.34913518 466.098579,3.04741602 C466.963613,3.74569686 467.396124,4.62635127 467.396124,5.68940568 C467.396124,6.58570646 467.140786,7.37777434 466.630103,8.06563307 C466.11942,8.75349181 465.322142,9.09741602 464.238243,9.09741602 C463.592073,9.09741602 463.029287,8.95671975 462.549871,8.675323 C462.070454,8.39392624 461.643154,8.02394717 461.267959,7.56537468 C460.851075,7.04426957 460.517572,6.55443812 460.267442,6.09586563 C460.017311,5.63729314 459.704653,5.1266178 459.329457,4.56382429 C457.891207,4.6263569 456.61973,5.57475396 455.514987,7.40904393 C454.410244,9.24333389 453.409737,12.296964 452.513437,16.5700258 L451.825581,19.8842377 L459.673385,19.8842377 L459.016796,22.7294574 L451.231525,22.7294574 Z M485.749354,25.3870801 C485.749354,27.5965657 485.056295,29.4933599 483.670155,31.0775194 C482.284015,32.6616789 480.267369,33.9227343 477.620155,34.8607235 C475.681644,35.5694265 473.722318,36.1426335 471.742119,36.5803618 C469.761919,37.01809 467.573311,37.3828581 465.176227,37.674677 C465.176227,40.9680613 465.785911,43.4849612 467.005297,45.2254522 C468.224683,46.9659432 470.012047,47.8361757 472.367442,47.8361757 C474.451862,47.8361757 476.291336,47.3150784 477.885917,46.2728682 C479.480499,45.230658 481.049002,43.6777881 482.591473,41.6142119 L484.373643,42.9273902 C482.706107,45.4703831 480.621718,47.5026625 478.120413,49.0242894 C475.619109,50.5459163 473.024044,51.3067183 470.335142,51.3067183 C466.645718,51.3067183 463.826582,50.2749457 461.877649,48.2113695 C459.928715,46.1477933 458.954264,43.2192265 458.954264,39.4255814 C458.954264,36.7992117 459.36593,34.2927337 460.189276,31.9060724 C461.012623,29.519411 462.216357,27.3360133 463.800517,25.355814 C465.342988,23.417303 467.234571,21.8540111 469.475323,20.6658915 C471.716075,19.4777718 474.191287,18.8837209 476.901034,18.8837209 C479.902599,18.8837209 482.127684,19.4934048 483.576357,20.7127907 C485.025029,21.9321766 485.749354,23.4902575 485.749354,25.3870801 L485.749354,25.3870801 Z M479.996382,24.6054264 C479.996382,23.7925024 479.881741,23.1515527 479.652455,22.6825581 C479.423169,22.2135635 479.131354,21.8644284 478.777003,21.6351421 C478.401807,21.3850117 478.005773,21.2286825 477.588889,21.1661499 C477.172005,21.1036173 476.744705,21.0723514 476.306977,21.0723514 C473.805672,21.0723514 471.497211,22.4480483 469.381525,25.1994832 C467.265838,27.9509181 465.926618,31.3797383 465.363824,35.4860465 C466.822919,35.2776045 468.469586,34.980579 470.303876,34.5949612 C472.138166,34.2093435 473.65977,33.7038791 474.868734,33.078553 C476.598803,32.1822522 477.885913,31.0306272 478.730103,29.6236434 C479.574294,28.2166596 479.996382,26.5439373 479.996382,24.6054264 L479.996382,24.6054264 Z" id="en" sketch:type="MSShapeGroup"></path>
            <path d="M137.09976,86.3909472 C137.71567,85.9148365 138.256529,85.9148365 138.718258,86.3909472 C139.182433,87.0246438 139.182433,87.6172674 138.718258,88.172171 C134.786223,91.7379715 131.663437,93.956748 129.349899,94.827661 C128.578992,95.065717 128.037318,94.827661 127.731402,94.11601 C127.49809,93.401006 127.731402,92.8854987 128.423995,92.5694887 C131.431757,91.2216262 134.324494,89.1637888 137.09976,86.3909472 L137.09976,86.3909472 L137.09976,86.3909472 Z M138.139873,94.234199 C138.604049,93.599665 139.104119,93.442917 139.644162,93.758927 C140.260888,94.234199 140.376728,94.827661 139.991682,95.540151 C137.36815,100.215759 133.55114,103.384241 128.540651,105.048114 C127.768928,105.364124 127.228069,105.16798 126.921338,104.453814 C126.765525,103.661693 127.074703,103.105951 127.84561,102.789941 C132.163507,101.44627 135.595471,98.593797 138.139873,94.234199 L138.139873,94.234199 L138.139873,94.234199 Z M135.827151,78.6658843 C136.365563,78.1897737 136.906422,78.1897737 137.44728,78.6658843 C137.909009,79.3766974 137.869036,79.9735122 137.330625,80.4479464 C134.477044,82.9835708 131.547597,84.8444258 128.540651,86.0338642 C127.84561,86.3498743 127.306383,86.1931266 126.921338,85.5569153 C126.688842,84.7656329 126.921338,84.2107293 127.614746,83.8930427 C131.085052,82.3909472 133.821161,80.645767 135.827151,78.6658843 L135.827151,78.6658843 L135.827151,78.6658843 Z M118.015524,89.59715 L122.180054,89.59715 L122.180054,80.8050293 L118.015524,80.8050293 L118.015524,89.59715 L118.015524,89.59715 Z M126.688842,78.5451802 C127.383882,78.5451802 127.805637,78.901425 127.962266,79.6164292 C127.883952,80.3305951 127.49809,80.7262364 126.805498,80.8050293 L124.49196,80.8050293 L124.49196,89.59715 L127.383882,89.59715 C128.000608,89.59715 128.309786,89.954233 128.309786,90.668399 C128.309786,91.4613579 128.000608,91.8569992 127.383882,91.8569992 L124.49196,91.8569992 L124.49196,104.571165 C124.49196,105.207376 124.105283,105.525063 123.335191,105.525063 C122.564284,105.525063 122.180054,105.207376 122.180054,104.571165 L122.180054,91.8569992 L118.015524,91.8569992 L118.015524,93.163789 C117.937209,98.076614 116.858755,101.881308 114.776082,104.571165 C114.236039,105.285331 113.619313,105.442917 112.925904,105.048114 C112.385861,104.49321 112.385861,103.818441 112.925904,103.027997 C114.776082,100.414417 115.701986,97.284493 115.701986,93.638223 L115.701986,91.8569992 L112.925904,91.8569992 C112.307547,91.8569992 112,91.4613579 112,90.668399 C112,89.954233 112.307547,89.59715 112.925904,89.59715 L115.701986,89.59715 L115.701986,80.8050293 L113.850177,80.8050293 C113.156769,80.8050293 112.770091,80.4085499 112.69504,79.6164292 C112.770091,78.901425 113.156769,78.5451802 113.850177,78.5451802 L126.688842,78.5451802 L126.688842,78.5451802 Z M169.952155,93.520536 L176.082703,93.520536 L176.082703,91.3822297 L169.952155,91.3822297 L169.952155,93.520536 L169.952155,93.520536 Z M169.952155,87.6974015 L169.952155,89.1223806 L176.082703,89.1223806 L176.082703,87.6974015 C176.082703,87.1424979 175.81105,86.8658843 175.272639,86.8658843 L170.877244,86.8658843 C170.258886,86.8658843 169.952155,87.1424979 169.952155,87.6974015 L169.952155,87.6974015 L169.952155,87.6974015 Z M172.844077,78.3093043 C172.765762,78.7049455 172.649922,79.1827326 172.495741,79.7334451 C172.419058,79.8147527 172.382348,79.8927075 172.382348,79.9731769 L178.626289,79.9731769 C179.243015,79.9731769 179.590535,80.3696563 179.668033,81.161777 C179.590535,81.954736 179.243015,82.3487008 178.626289,82.3487008 L171.571468,82.3487008 C171.49397,82.5088013 171.340604,82.7870914 171.108108,83.1810562 C170.799745,83.7359598 170.568881,84.1718357 170.414699,84.4878458 L176.429407,84.4878458 C177.586176,84.4878458 178.16456,85.0821459 178.16456,86.2715842 L178.16456,98.63202 C178.471292,101.166806 176.852794,102.117351 173.305805,101.482816 C172.613213,101.324392 172.264877,100.888516 172.264877,100.17435 C172.419058,99.464376 172.844077,99.145851 173.539117,99.224644 C175.388479,99.543168 176.235253,99.145851 176.082703,98.036044 L176.082703,95.779547 L169.952155,95.779547 L169.952155,100.17435 C169.952155,100.967309 169.605451,101.363789 168.911226,101.363789 C168.138688,101.363789 167.754458,100.967309 167.754458,100.17435 L167.754458,88.2900251 C167.59946,88.6085499 167.25194,89.045264 166.712713,89.597653 C166.095172,90.154233 165.516787,90.1936295 164.97756,89.7183571 C164.592514,89.1634535 164.670013,88.5708298 165.210872,87.9329422 C166.905236,86.1927913 168.217002,84.3285834 169.142091,82.3487008 L166.250985,82.3487008 C165.555944,82.3487008 165.170083,81.954736 165.094216,81.161777 C165.170083,80.3696563 165.555944,79.9731769 166.250985,79.9731769 L169.952155,79.9731769 C170.105521,79.6571668 170.298859,79.1827326 170.530539,78.5448449 C170.607222,78.3093043 170.683905,78.1114837 170.762219,77.9522213 C170.993084,77.3185247 171.415655,77 172.034012,77 C172.728237,77.2372171 172.997443,77.6756077 172.844077,78.3093043 L172.844077,78.3093043 L172.844077,78.3093043 Z M162.665654,80.6831517 C163.589927,81.7150042 164.399176,82.8650461 165.094216,84.1324392 C165.480077,84.8449288 165.401763,85.4006706 164.863352,85.7946354 C164.244994,86.1927913 163.744924,86.0746018 163.359063,85.4400671 C162.278977,83.6974015 161.546411,82.5859179 161.162181,82.1114837 C160.774688,81.6362112 160.774688,81.161777 161.162181,80.6831517 C161.700593,80.2891869 162.202294,80.2891869 162.665654,80.6831517 L162.665654,80.6831517 L162.665654,80.6831517 Z M156.303426,81.161777 C155.763383,81.0813076 155.493362,81.3973177 155.493362,82.1114837 L155.493362,95.779547 C157.344355,96.652976 158.270259,96.056161 158.270259,93.996647 C158.270259,92.8072087 157.999422,91.3436714 157.461011,89.597653 C157.151832,88.6479464 156.997651,88.0134116 156.997651,87.6974015 C156.997651,87.458508 157.113491,86.9446773 157.344355,86.1517184 C157.730216,84.7250629 158.039395,83.379715 158.270259,82.1114837 C158.422809,81.4777871 158.191945,81.161777 157.576851,81.161777 L156.303426,81.161777 L156.303426,81.161777 Z M155.031633,78.9019279 L158.733619,78.9019279 C160.042938,78.9019279 160.659664,79.5381391 160.583797,80.804694 C160.427168,82.1533948 160.08128,83.7753562 159.542868,85.6772842 C159.311188,86.7854149 159.196164,87.458508 159.196164,87.6974015 C159.196164,87.8566639 159.311188,88.2137469 159.542868,88.7644593 C159.617919,88.9262364 159.657892,89.045264 159.657892,89.1223806 L162.897334,89.1223806 C164.439149,88.9656329 165.132557,89.6789606 164.97756,91.263202 L164.97756,98.75021 C165.132557,101.206203 166.751055,102.47192 169.837131,102.553227 L179.320513,102.553227 C179.937239,102.553227 180.283943,102.946354 180.361442,103.741827 C180.283943,104.532272 179.937239,104.928751 179.320513,104.928751 L169.837131,104.928751 C167.36778,104.928751 165.401763,103.937972 163.937447,101.958089 C163.244039,102.751048 162.393185,103.621961 161.393045,104.571668 C160.774688,105.126572 160.196304,105.168483 159.657892,104.69321 C159.117849,104.135792 159.156191,103.543168 159.774548,102.91031 C162.008955,101.006706 163.011543,99.659681 162.780678,98.867561 L162.780678,92.3319363 C162.857361,91.7787091 162.549814,91.5004191 161.856406,91.5004191 L160.120437,91.5004191 C160.427168,92.2129086 160.583797,93.20285 160.583797,94.471081 C160.352117,98.036044 158.654489,99.303437 155.493362,98.274937 L155.493362,104.810562 C155.493362,105.525566 155.1075,105.919531 154.337409,106 C153.566502,105.919531 153.18064,105.525566 153.18064,104.810562 L153.18064,80.6831517 C153.103142,79.417435 153.720683,78.8256496 155.031633,78.9019279 L155.031633,78.9019279 Z M215.182302,82.3488684 C217.264159,87.3404862 218.573478,93.281811 219.11352,100.174518 C219.190203,101.20637 218.842683,101.762112 218.073408,101.840905 C217.148319,101.840905 216.645802,101.363956 216.569119,100.41425 C216.10739,93.599497 214.872307,87.9331098 212.867948,83.4184409 C212.55877,82.546689 212.79045,81.9129925 213.562173,81.5173512 C214.256397,81.2801341 214.794808,81.5584241 215.182302,82.3488684 L215.182302,82.3488684 Z M206.043992,79.1409891 C207.81667,83.8937133 208.974255,88.9658005 209.514298,94.350545 C209.514298,95.223973 209.126805,95.738642 208.357529,95.897066 C207.58499,95.897066 207.160788,95.463705 207.085736,94.590277 C206.467379,88.8065381 205.350583,83.9347863 203.73127,79.9733445 C203.421276,79.1024308 203.61543,78.4678961 204.309654,78.0705784 C205.079746,77.9129925 205.65813,78.268399 206.043992,79.1409891 L206.043992,79.1409891 Z M200.839348,81.1619447 L200.839348,98.987594 C200.76185,101.363956 201.648597,102.511484 203.500406,102.432691 L208.473369,102.432691 C209.936869,102.511484 210.785275,102.195474 211.017771,101.482984 C211.402817,100.849288 211.594524,98.987594 211.594524,95.897066 C211.671207,95.26337 212.0587,94.94736 212.751292,94.94736 C213.5222,95.026153 213.946403,95.383236 214.025533,96.015256 C214.178898,99.741157 213.832194,102.156077 212.984604,103.265046 C212.366247,104.374853 210.745302,104.889522 208.126665,104.810729 L203.846294,104.810729 C200.221807,104.889522 198.485838,103.343839 198.641651,100.174518 L198.641651,81.1619447 C198.641651,80.4477787 199.026697,80.0521375 199.79842,79.9733445 C200.491828,80.0521375 200.839348,80.4477787 200.839348,81.1619447 L200.839348,81.1619447 Z M195.981409,84.1326069 C195.903911,89.9951383 195.210502,95.699246 193.899552,101.245767 C193.590373,102.038726 193.090303,102.432691 192.395263,102.432691 C191.624356,102.117519 191.315177,101.524895 191.471806,100.651467 C192.933674,95.659849 193.628715,90.1150042 193.552032,84.012741 C193.628715,83.1418273 194.054549,82.7042749 194.825456,82.7042749 C195.594732,82.7864208 195.981409,83.2616932 195.981409,84.1326069 L195.981409,84.1326069 Z M256.593235,78.9017603 C257.363326,78.9017603 257.787529,79.3007544 257.867475,80.0911987 C257.787529,80.8833194 257.363326,81.2797988 256.593235,81.2797988 L243.177002,81.2797988 L238.897447,87.5782062 C239.050813,87.4994132 243.292026,87.2227997 251.619456,86.7458508 C250.616868,85.63772 249.613465,84.528751 248.613325,83.4189438 C248.072467,82.8657167 248.034125,82.3099749 248.49667,81.754233 C249.034265,81.3585918 249.57594,81.438223 250.116798,81.9922883 C253.046246,85.0031852 255.473992,87.8958927 257.402484,90.6678961 C257.787529,91.460855 257.710031,92.0543168 257.172435,92.4499581 C256.478211,92.7676446 255.898195,92.569824 255.438914,91.8573345 C255.438914,91.7785415 254.743058,90.8279966 253.355425,89.0048617 L246.183948,89.4792959 L246.183948,94.351048 L255.668962,94.351048 C256.514921,94.351048 256.978281,94.749204 257.058227,95.540486 C256.978281,96.332607 256.514921,96.729925 255.668962,96.729925 L246.183948,96.729925 L246.183948,102.078625 L257.518324,102.078625 C258.287599,102.155742 258.676724,102.511148 258.676724,103.14736 C258.597594,103.937804 258.135865,104.33596 257.288275,104.33596 L232.419379,104.33596 C231.570158,104.33596 231.108429,103.937804 231.031746,103.14736 C231.031746,102.511148 231.454317,102.155742 232.305171,102.078625 L243.75457,102.078625 L243.75457,96.729925 L234.269556,96.729925 C233.420335,96.729925 232.957791,96.332607 232.881923,95.540486 C232.881923,94.827997 233.305311,94.431517 234.154532,94.351048 L243.75457,94.351048 L243.75457,89.5974853 C240.129267,89.7575859 236.506411,89.9545683 232.881923,90.1934619 C232.188515,90.1146689 231.840995,89.7181894 231.840995,89.0048617 C231.840995,88.2898575 232.188515,87.8958927 232.881923,87.8154233 C232.957791,87.8154233 233.962009,87.739145 235.889685,87.5782062 L240.399289,81.2797988 L232.997763,81.2797988 C232.071859,81.2797988 231.570158,80.8833194 231.493475,80.0911987 C231.570158,79.3007544 232.071859,78.9017603 232.997763,78.9017603 L256.593235,78.9017603 L256.593235,78.9017603 Z M282.277416,91.5005029 C282.431598,89.9145851 283.241662,89.0453479 284.705162,88.8869237 C286.244529,89.0453479 287.093751,89.9145851 287.248748,91.5005029 C287.173697,93.085583 286.324475,93.917938 284.705162,93.996731 C283.241662,93.839145 282.431598,93.00679 282.277416,91.5005029 L282.277416,91.5005029 Z M316.516057,92.8069573 L332.016595,92.8069573 C332.551743,92.8857502 332.785871,92.5320201 332.707556,91.738223 L332.707556,90.7860017 L315.36092,90.7860017 L315.36092,91.738223 C315.435971,92.4498743 315.821017,92.8069573 316.516057,92.8069573 L316.516057,92.8069573 Z M316.286009,86.9838223 C315.66602,86.9838223 315.36092,87.3409053 315.36092,88.0550712 L315.36092,89.0047779 L332.707556,89.0047779 L332.707556,87.9335289 C332.785871,87.2227158 332.475876,86.9067058 331.781652,86.9838223 L316.286009,86.9838223 L316.286009,86.9838223 Z M319.9831,79.0198659 L319.9831,80.3300084 L327.96872,80.4481978 L327.96872,79.14057 C328.043771,78.4272422 328.428001,78.0324392 329.123857,77.9519698 C329.893133,78.1112322 330.277363,78.5445935 330.277363,79.2587594 L330.277363,80.3300084 L336.293702,80.3300084 C337.063794,80.3300084 337.488813,80.6829003 337.567943,81.3979044 C337.488813,82.1112322 337.063794,82.4691534 336.293702,82.4691534 L330.277363,82.4691534 L330.277363,83.3006706 C329.508087,84.4875943 328.737996,84.4875943 327.96872,83.3006706 L327.96872,82.4691534 L319.9831,82.4691534 L319.9831,83.41886 C319.908049,83.9737636 319.523819,84.2503772 318.829595,84.2503772 C318.134555,84.1715842 317.789482,83.8538977 317.789482,83.3006706 L317.789482,82.4691534 L311.888167,82.4691534 C311.268993,82.3903604 310.923921,81.9922045 310.848869,81.279715 C310.848869,80.6460184 311.194758,80.3300084 311.888167,80.3300084 L317.789482,80.3300084 L317.789482,79.0198659 C317.789482,78.3878458 318.174527,78.0324392 318.944619,77.9519698 C319.638843,78.0324392 319.9831,78.3878458 319.9831,79.0198659 L319.9831,79.0198659 L319.9831,79.0198659 Z M332.825844,85.0818944 C333.980165,85.0818944 334.595259,85.7943839 334.675205,87.2227158 L334.675205,92.8069573 C334.595259,93.996396 334.020138,94.590696 332.940868,94.590696 L324.726015,94.590696 L324.726015,96.611651 L337.102951,96.611651 C337.797991,96.611651 338.218931,96.968734 338.377191,97.678709 C338.298061,98.392875 337.913015,98.749958 337.219607,98.749958 L326.230304,98.749958 C329.083069,100.889103 332.785871,102.236966 337.333815,102.790193 C338.103907,102.94694 338.453058,103.421375 338.377191,104.21601 C338.218931,105.007293 337.758018,105.324979 336.988743,105.168231 C331.897492,104.375272 327.580411,102.511065 324.03587,99.582313 C321.643202,102.672842 317.515381,104.571417 311.658118,105.285583 C310.963894,105.363537 310.579664,105.007293 310.499718,104.21601 C310.424667,103.504359 310.733845,103.068483 311.42807,102.910059 C316.286009,102.276362 319.828919,100.889103 322.068221,98.749958 L311.42807,98.749958 C310.653899,98.749958 310.194618,98.392875 310.039621,97.678709 C310.113856,96.968734 310.539691,96.611651 311.308966,96.611651 L322.646605,96.611651 L322.646605,94.590696 L315.241817,94.590696 C314.241677,94.511903 313.622504,93.956999 313.393271,92.9268231 L313.393271,86.9838223 C313.468322,85.7943839 314.048338,85.1606873 315.126793,85.0818944 L332.825844,85.0818944 L332.825844,85.0818944 Z M367.874794,92.2126572 C367.103887,92.2126572 366.255481,92.5697402 365.330392,93.281391 C364.406119,93.996396 363.481846,94.590696 362.555942,95.06513 C362.707676,95.145599 362.90183,95.263789 363.131879,95.422213 C366.064589,97.164878 368.338154,98.671165 369.958283,99.939396 C372.191874,98.59321 373.966184,96.530344 375.278766,93.759179 C375.739679,92.8069573 375.429685,92.2931266 374.350414,92.2126572 L367.874794,92.2126572 L367.874794,92.2126572 Z M362.555942,80.2084661 C361.9384,80.2084661 361.088363,80.6460184 360.008277,81.5169321 C359.393183,81.9922045 358.85314,82.3903604 358.38978,82.7038558 L365.679544,87.1011735 C367.913951,85.5999162 369.842443,83.7365465 371.46094,81.5169321 C371.846801,81.0408215 371.961826,80.6829003 371.806828,80.4481978 C371.731777,80.2889355 371.382626,80.2084661 370.767531,80.2084661 L362.555942,80.2084661 L362.555942,80.2084661 Z M367.178938,90.0735122 L376.088015,90.0735122 C377.858246,90.2352892 378.402368,91.5001676 377.707328,93.875692 C375.084612,101.799413 367.334751,105.643504 354.457745,105.402934 C353.607708,105.402934 353.147611,105.007293 353.070928,104.21601 C353.070928,103.421375 353.492683,102.986337 354.341089,102.910059 C357.580531,102.986337 360.08496,102.910059 361.862533,102.672842 C363.786946,102.511065 365.754595,102.039145 367.758138,101.245348 C365.290419,99.342582 362.786806,97.678709 360.24322,96.25373 C358.698958,97.127158 356.771282,97.678709 354.457745,97.918441 C353.687654,97.996396 353.262635,97.641827 353.187584,96.846354 C353.187584,96.134702 353.571814,95.698826 354.341089,95.540402 C357.734713,95.06513 360.897472,93.719782 363.826103,91.5001676 C365.061186,90.4699916 366.179614,89.9955574 367.178938,90.0735122 L367.178938,90.0735122 L367.178938,90.0735122 Z M362.555942,78.0701593 L372.616077,78.0701593 C374.855379,78.1506287 375.394606,79.3006706 374.23539,81.5169321 C370.226673,88.9653814 362.321814,92.7281643 350.524079,92.8069573 C349.9098,92.8069573 349.559833,92.4104778 349.484782,91.6183571 C349.559833,90.8279128 349.9098,90.3911987 350.524079,90.3115675 C355.461148,90.2352892 359.699098,89.5596815 363.246087,88.2897737 C361.397542,87.0248952 359.044847,85.5999162 356.195345,84.0131601 C355.806221,84.1715842 355.111996,84.4507125 354.111856,84.8446773 C353.338502,85.0818944 352.837616,85.2436714 352.607568,85.3191115 C351.914159,85.4792121 351.453246,85.2436714 351.218303,84.6074602 C351.064122,83.8932942 351.29417,83.41886 351.914159,83.1816429 C354.841159,82.309891 357.350483,80.8832355 359.433156,78.9016764 C360.04825,78.3501257 361.088363,78.0701593 362.555942,78.0701593 L362.555942,78.0701593 L362.555942,78.0701593 Z" id="cn" sketch:type="MSShapeGroup"></path>
        </g>
    </g>
</svg>